<svg xmlns="http://www.w3.org/2000/svg" width="20" height="11" viewBox="0 0 20 11" fill="none">
  <path fill-rule="evenodd" clip-rule="evenodd" d="M5.34884 0C2.39475 0 0 2.39475 0 5.34884C0 8.30288 2.39475 10.6977 5.34884 10.6977C7.37727 10.6977 9.14065 9.56865 10.0473 7.90698H13.0233V10C13.0233 10.3853 13.3356 10.6977 13.7209 10.6977H16.9767C17.362 10.6977 17.6744 10.3853 17.6744 10V7.90698H19.3023C19.6876 7.90698 20 7.5946 20 7.2093V4.4186C20 3.51953 19.2712 2.7907 18.3721 2.7907H10.0473C9.14065 1.12903 7.37727 0 5.34884 0Z" fill="#FF2E00"/>
  <path d="M5.34899 3.48837C4.32148 3.48837 3.48853 4.3213 3.48853 5.34884C3.48853 6.37637 4.32148 7.2093 5.34899 7.2093C6.3765 7.2093 7.20946 6.37637 7.20946 5.34884C7.20946 4.3213 6.3765 3.48837 5.34899 3.48837Z" fill="white"/>
</svg>