<svg xmlns="http://www.w3.org/2000/svg" width="24" height="30" viewBox="0 0 24 30" fill="none">
<path fill-rule="evenodd" clip-rule="evenodd" d="M17.2146 3.4448L18.394 3.59169C21.1161 3.93071 23.1594 6.24428 23.1594 8.98745V24.197C23.1594 26.8605 21.1754 29.1068 18.5323 29.436C14.1423 29.9828 9.70161 29.9828 5.31158 29.436C2.66853 29.1068 0.68457 26.8605 0.68457 24.197V8.98745C0.68457 6.24428 2.72789 3.93071 5.45003 3.59169L6.62937 3.4448C7.09653 1.7616 8.63999 0.526123 10.472 0.526123H13.372C15.204 0.526123 16.7474 1.7616 17.2146 3.4448ZM6.48452 5.65463L5.71883 5.74999C4.08555 5.95341 2.85955 7.34156 2.85955 8.98745V24.197C2.85955 25.7632 4.02618 27.0841 5.58038 27.2777C9.7918 27.8021 14.0522 27.8021 18.2635 27.2777C19.8177 27.0841 20.9844 25.7632 20.9844 24.197V8.98745C20.9844 7.34156 19.7584 5.95341 18.1252 5.74999L17.3594 5.65463V7.41356C17.3594 8.01416 16.8725 8.50106 16.2719 8.50106H7.57201C6.97141 8.50106 6.48452 8.01416 6.48452 7.41356V5.65463ZM8.6595 4.51359C8.6595 3.51258 9.47092 2.7011 10.472 2.7011H13.372C14.373 2.7011 15.1844 3.51258 15.1844 4.51359V6.32607H8.6595V4.51359Z" fill="#FF2E00"/>
<path d="M17.3595 14.3012C17.3595 13.7006 16.8726 13.2137 16.272 13.2137H7.57211C6.97151 13.2137 6.48462 13.7006 6.48462 14.3012C6.48462 14.9018 6.97151 15.3887 7.57211 15.3887H16.272C16.8726 15.3887 17.3595 14.9018 17.3595 14.3012Z" fill="#FF2E00"/>
<path d="M15.9095 18.6509C15.9095 18.0503 15.4226 17.5634 14.822 17.5634H7.57211C6.97151 17.5634 6.48462 18.0503 6.48462 18.6509C6.48462 19.2515 6.97151 19.7384 7.57211 19.7384H14.822C15.4226 19.7384 15.9095 19.2515 15.9095 18.6509Z" fill="#FF2E00"/>
</svg>