<svg xmlns="http://www.w3.org/2000/svg" width="21" height="21" viewBox="0 0 21 21" fill="none">
<path d="M3.58114 14.2724C3.64494 14.9756 3.97002 15.6293 4.49223 16.1045C5.01443 16.5797 5.69581 16.8419 6.40186 16.8393H16.6795C17.3863 16.8421 18.0684 16.5796 18.5909 16.1037C19.1135 15.6277 19.4384 14.973 19.5014 14.269L20.2584 5.7559C20.2806 5.52017 20.2534 5.2824 20.1784 5.05782C20.1035 4.83323 19.9824 4.62678 19.823 4.45171C19.6636 4.27663 19.4694 4.13677 19.2528 4.04111C19.0362 3.94545 18.8021 3.89609 18.5653 3.89619H3.79647L3.64007 1.83137C3.59949 1.33379 3.37368 0.869543 3.00729 0.530434C2.6409 0.191325 2.16061 0.00203749 1.66138 0H0.566637C0.416355 0 0.272229 0.0596989 0.165964 0.165964C0.0596992 0.272229 0 0.416355 0 0.566637C0 0.716918 0.0596992 0.861044 0.165964 0.967309C0.272229 1.07357 0.416355 1.13327 0.566637 1.13327H1.66138C1.87532 1.13373 2.08126 1.21463 2.2383 1.35992C2.39534 1.5052 2.492 1.70424 2.50907 1.9175L3.58114 14.2724Z" fill="#3D3D3D"/>
<path d="M7.806 20.2377C8.43189 20.2377 8.93928 19.7304 8.93928 19.1045C8.93928 18.4786 8.43189 17.9712 7.806 17.9712C7.18011 17.9712 6.67273 18.4786 6.67273 19.1045C6.67273 19.7304 7.18011 20.2377 7.806 20.2377Z" fill="#313131"/>
<path d="M15.1597 20.2377C15.7856 20.2377 16.293 19.7304 16.293 19.1045C16.293 18.4786 15.7856 17.9712 15.1597 17.9712C14.5338 17.9712 14.0264 18.4786 14.0264 19.1045C14.0264 19.7304 14.5338 20.2377 15.1597 20.2377Z" fill="#313131"/>
</svg>