<svg width="18" height="17" viewBox="0 0 18 17" fill="none" xmlns="http://www.w3.org/2000/svg">
<g id="Group 56">
<g id="Group 11">
<path id="Vector" d="M3.00816 11.9889C3.06175 12.5795 3.33482 13.1286 3.77347 13.5278C4.21212 13.927 4.78448 14.1472 5.37756 14.145H14.0108C14.6045 14.1474 15.1775 13.9269 15.6164 13.5271C16.0553 13.1273 16.3282 12.5773 16.3811 11.986L17.017 4.83495C17.0357 4.63695 17.0129 4.43722 16.9499 4.24857C16.8869 4.05991 16.7852 3.8865 16.6513 3.73943C16.5174 3.59237 16.3543 3.47489 16.1724 3.39454C15.9904 3.31418 15.7937 3.27272 15.5948 3.2728H3.18903L3.05766 1.53835C3.02357 1.12038 2.83389 0.730416 2.52613 0.445564C2.21836 0.160713 1.81491 0.00171149 1.39556 0H0.475975C0.349738 0 0.228672 0.0501471 0.13941 0.13941C0.0501473 0.228672 0 0.349738 0 0.475975C0 0.602211 0.0501473 0.723277 0.13941 0.81254C0.228672 0.901802 0.349738 0.95195 0.475975 0.95195H1.39556C1.57527 0.952333 1.74826 1.02029 1.88017 1.14233C2.01209 1.26437 2.09328 1.43156 2.10762 1.6107L3.00816 11.9889ZM15.433 11.8994C15.4011 12.2539 15.2372 12.5836 14.9738 12.8232C14.7105 13.0627 14.3668 13.1947 14.0108 13.1931H5.37756C5.02202 13.1945 4.67883 13.0627 4.41572 12.8236C4.15261 12.5844 3.98869 12.2553 3.9563 11.9013L3.26328 4.22094H15.5948C15.6616 4.22061 15.7276 4.23431 15.7887 4.26115C15.8498 4.28799 15.9045 4.32737 15.9494 4.37674C15.9943 4.42611 16.0283 4.48436 16.0492 4.54772C16.0701 4.61108 16.0775 4.67813 16.0708 4.74452L15.433 11.8994Z" fill="black"/>
<path id="Vector_2" d="M6.55705 16.9998C7.0828 16.9998 7.509 16.5736 7.509 16.0479C7.509 15.5221 7.0828 15.0959 6.55705 15.0959C6.0313 15.0959 5.6051 15.5221 5.6051 16.0479C5.6051 16.5736 6.0313 16.9998 6.55705 16.9998Z" fill="black"/>
<path id="Vector_3" d="M12.7341 16.9998C13.2599 16.9998 13.6861 16.5736 13.6861 16.0479C13.6861 15.5221 13.2599 15.0959 12.7341 15.0959C12.2084 15.0959 11.7822 15.5221 11.7822 16.0479C11.7822 16.5736 12.2084 16.9998 12.7341 16.9998Z" fill="black"/>
</g>
</g>
</svg>
