<svg width="18" height="17" viewBox="0 0 18 17" fill="none" xmlns="http://www.w3.org/2000/svg">
<g id="Group 125">
<path id="Vector" d="M5.82876 4.43022C5.98554 4.43442 6.15936 4.44291 6.32474 4.81C6.4344 5.05438 6.61914 5.50428 6.76963 5.87075C6.88677 6.15593 6.98309 6.39061 7.00717 6.43864C7.06227 6.54833 7.09621 6.6749 7.02414 6.82255C7.01566 6.83996 7.00769 6.8566 6.99989 6.87263C6.94213 6.9926 6.901 7.07803 6.80374 7.18961C6.76379 7.23554 6.72216 7.28584 6.68066 7.33597C6.6077 7.42415 6.53521 7.51173 6.47309 7.5736C6.36288 7.6832 6.24838 7.80146 6.37554 8.02084C6.50278 8.24021 6.94787 8.96175 7.60497 9.54396C8.31135 10.1729 8.9256 10.4379 9.23615 10.5719C9.2964 10.5979 9.34524 10.619 9.38106 10.6368C9.60155 10.7465 9.73292 10.7296 9.86009 10.582C9.98734 10.4342 10.4112 9.94055 10.5596 9.72117C10.7037 9.5018 10.8521 9.53556 11.0556 9.61148C11.259 9.68741 12.3443 10.2191 12.5647 10.3287C12.6082 10.3504 12.649 10.37 12.6868 10.3881C12.8401 10.4617 12.9444 10.5116 12.9886 10.5862C13.0437 10.679 13.0437 11.1178 12.8614 11.6326C12.675 12.1472 11.7762 12.6409 11.3692 12.6789C11.3307 12.6826 11.2924 12.6872 11.2529 12.6919C10.8799 12.7371 10.4066 12.7943 8.71976 12.1304C6.64138 11.3131 5.26941 9.28525 4.99202 8.87529C4.97013 8.8429 4.95505 8.82062 4.94699 8.80982L4.9423 8.80356C4.81609 8.63466 4.04404 7.60162 4.04404 6.53572C4.04404 5.51594 4.5464 4.98501 4.77553 4.74285C4.79005 4.7275 4.80347 4.71332 4.81561 4.70024C5.01905 4.48087 5.25648 4.42603 5.40483 4.42603C5.55325 4.42603 5.70159 4.42603 5.82876 4.43022Z" fill="black"/>
<path id="Vector_2" fill-rule="evenodd" clip-rule="evenodd" d="M0.0857543 16.5658C0.0156397 16.8203 0.247433 17.0552 0.502843 16.9885L4.45105 15.9573C5.69734 16.6323 7.10049 16.9909 8.52909 16.9909H8.53338C13.2345 16.9909 17.0667 13.181 17.0667 8.49765C17.0667 6.22767 16.1806 4.09268 14.5698 2.48933C12.9589 0.886048 10.8182 0 8.53329 0C3.83219 0 5.55097e-07 3.80999 5.55097e-07 8.49345C-0.000539316 9.98332 0.392726 11.4471 1.14031 12.7379L0.0857543 16.5658ZM2.37955 13.0794C2.47109 12.7471 2.42536 12.392 2.25263 12.0937C1.61837 10.9986 1.28495 9.75666 1.28541 8.49345C1.28541 4.52598 4.536 1.28541 8.53329 1.28541C10.4785 1.28541 12.2932 2.03692 13.663 3.40037C15.0313 4.76232 15.7813 6.56938 15.7813 8.49765C15.7813 12.4649 12.5307 15.7055 8.53338 15.7055H8.52909C7.31524 15.7055 6.12241 15.4007 5.06326 14.827C4.7766 14.6717 4.44164 14.6312 4.1262 14.7136L1.75899 15.3319L2.37955 13.0794Z" fill="black"/>
</g>
</svg>
