<svg width="13" height="14" viewBox="0 0 13 14" fill="none" xmlns="http://www.w3.org/2000/svg">
<path id="Vector" fill-rule="evenodd" clip-rule="evenodd" d="M8.19138 9.3705C6.21122 10.8969 3.31271 10.7768 1.47713 9.01009C-0.492377 7.11452 -0.492377 4.04116 1.47713 2.14557C3.44664 0.249979 6.63986 0.249979 8.60934 2.14557C10.4449 3.91226 10.5698 6.70197 8.98381 8.60782L12.8359 12.3152C13.0547 12.5259 13.0547 12.8674 12.8359 13.078C12.617 13.2886 12.2622 13.2886 12.0434 13.078L8.19138 9.3705ZM2.2696 8.2474C0.737763 6.77302 0.737763 4.38265 2.2696 2.9083C3.80145 1.43395 6.28504 1.43395 7.81691 2.9083C9.34759 4.38157 9.34871 6.7695 7.82027 8.24417C7.81915 8.24525 7.81803 8.24625 7.81684 8.2474C7.81572 8.24848 7.8146 8.24956 7.81355 8.25064C6.28138 9.72171 3.80032 9.72064 2.2696 8.2474Z" fill="#E4E4E4"/>
</svg>
